# xmcd
#
# Track frame offsets: 
#        150
#        30252
#        60136
#        96424
#        128248
#        148513
#        198113
#        251630
#        273334
#        308731
#
# Disc length: 4314 seconds
#
# Revision: 0
# Processed by: cddbd v1.5.2PL0 Copyright (c) Steve Scherf et al.
# Submitted via: ExactAudioCopy v0.99pb3
#
DISCID=7f10d80a
DTITLE=Luther Allison - Songs From The Road
DYEAR=2009
DGENRE=Blues
TTITLE0=Cancel My Check
TTITLE1=Living In The House Of The Blues
TTITLE2=What Have I Done Wrong
TTITLE3=Will It Ever Change
TTITLE4=You Can, You Can
TTITLE5=There Comes A Time
TTITLE6=(Watching You) Cherry Red Wine
TTITLE7=Low Down And Dirty
TTITLE8=It Hurts Me Too
TTITLE9=Serious
EXTD=
EXTT0=
EXTT1=
EXTT2=
EXTT3=
EXTT4=
EXTT5=
EXTT6=
EXTT7=
EXTT8=
EXTT9=
PLAYORDER=
